PSF_US_stride3.mot
nRows=147
nColumns=3

name PSF_US_stride3.mot
datacolumns 3
datarows 147
range 1.070000 1.800000
endheader
time	soleus_l	med_gas_l
        1.0700000000	       33.3360925865	       37.2840906892	
        1.0750000000	       33.3156093668	       37.1829661882	
        1.0800000000	       33.2734746268	       37.0638483086	
        1.0850000000	       33.2282421378	       36.9224901575	
        1.0900000000	       33.2102429643	       36.6733257140	
        1.0950000000	       33.2275493056	       36.2775078118	
        1.1000000000	       33.3725658814	       35.7825285880	
        1.1050000000	       33.6389491918	       35.2346416067	
        1.1100000000	       33.9966708140	       34.6635573095	
        1.1150000000	       34.2944770811	       34.2361128238	
        1.1200000000	       34.5632940202	       33.8466858651	
        1.1250000000	       34.8098266496	       33.4288125655	
        1.1300000000	       34.8937794227	       33.1221014435	
        1.1350000000	       34.8241872161	       32.9044505349	
        1.1400000000	       34.6251558883	       32.7490515099	
        1.1450000000	       34.3773189380	       32.6475431756	
        1.1500000000	       34.1634825812	       32.5805004772	
        1.1550000000	       33.8947775028	       32.4958912959	
        1.1600000000	       33.6724242247	       32.4106655281	
        1.1650000000	       33.5366671949	       32.3218113630	
        1.1700000000	       33.4814440408	       32.2242159027	
        1.1750000000	       33.4736845866	       32.1334441371	
        1.1800000000	       33.4774535033	       31.9981478074	
        1.1850000000	       33.4783207613	       31.7974257120	
        1.1900000000	       33.4311312173	       31.5437786051	
        1.1950000000	       33.3121005129	       31.2955904051	
        1.2000000000	       33.1226908031	       31.0557655368	
        1.2050000000	       32.9361514611	       30.8758637479	
        1.2100000000	       32.7305670886	       30.6957627101	
        1.2150000000	       32.4734623623	       30.4552528788	
        1.2200000000	       32.2568173648	       30.1816246656	
        1.2250000000	       32.0996835271	       29.8691887758	
        1.2300000000	       31.9913821222	       29.5255662283	
        1.2350000000	       31.9124298862	       29.2278137576	
        1.2400000000	       31.8441475745	       29.0078975528	
        1.2450000000	       31.7010436459	       28.7698350385	
        1.2500000000	       31.4585166640	       28.5783770375	
        1.2550000000	       31.1030834018	       28.4237678286	
        1.2600000000	       30.6411339894	       28.2695960089	
        1.2650000000	       30.1182354205	       28.0816324966	
        1.2700000000	       29.6928283186	       27.8965263002	
        1.2750000000	       29.1989047347	       27.6489363315	
        1.2800000000	       28.6049429571	       27.3174991763	
        1.2850000000	       28.0406443908	       27.0030864902	
        1.2900000000	       27.4782599922	       26.7358355313	
        1.2950000000	       26.9173531654	       26.5503028514	
        1.3000000000	       26.4723663097	       26.4661807448	
        1.3050000000	       26.0830609475	       26.4301923697	
        1.3100000000	       25.5562850216	       26.4221663375	
        1.3150000000	       25.0521330527	       26.4236868363	
        1.3200000000	       24.5490037739	       26.4129357183	
        1.3250000000	       24.1160118010	       26.3727243158	
        1.3300000000	       23.7812881264	       26.3070525647	
        1.3350000000	       23.3844168770	       26.1799248309	
        1.3400000000	       23.0496192769	       25.9930999017	
        1.3450000000	       22.8284455909	       25.7631174418	
        1.3500000000	       22.7354044009	       25.4975505895	
        1.3550000000	       22.7461099605	       25.2053350081	
        1.3600000000	       22.8327497553	       25.0074420483	
        1.3650000000	       23.0097585459	       24.8070317138	
        1.3700000000	       23.3246628143	       24.6069193558	
        1.3750000000	       23.7323931043	       24.4784611591	
        1.3800000000	       24.2340188568	       24.4277199382	
        1.3850000000	       24.8156693105	       24.4576363813	
        1.3900000000	       25.3291380614	       24.5315342026	
        1.3950000000	       25.7993754853	       24.6495347336	
        1.4000000000	       26.4213121309	       24.8625368050	
        1.4050000000	       26.9975084982	       25.1291965485	
        1.4100000000	       27.5032435379	       25.4258474492	
        1.4150000000	       27.9453551109	       25.7288171877	
        1.4200000000	       28.3119382259	       25.9966553466	
        1.4250000000	       28.5715724872	       26.1830990792	
        1.4300000000	       28.8843779256	       26.3963416372	
        1.4350000000	       29.2336120750	       26.6323325247	
        1.4400000000	       29.5733127458	       26.8825880517	
        1.4450000000	       29.8975148216	       27.1691507365	
        1.4500000000	       30.1294608526	       27.4135807196	
        1.4550000000	       30.3907602406	       27.7127615956	
        1.4600000000	       30.7117723398	       28.0727687322	
        1.4650000000	       31.0309658244	       28.3508356802	
        1.4700000000	       31.4037761319	       28.5319703828	
        1.4750000000	       31.8594444966	       28.5452530088	
        1.4800000000	       32.2847024928	       28.5169713199	
        1.4850000000	       32.6887208624	       28.4059493601	
        1.4900000000	       33.2158745120	       28.2538895590	
        1.4950000000	       33.6781220384	       28.1314039318	
        1.5000000000	       34.0303464123	       28.1134874815	
        1.5050000000	       34.2639713616	       28.1423923895	
        1.5100000000	       34.4033678550	       28.2658318960	
        1.5150000000	       34.4817397100	       28.3852525138	
        1.5200000000	       34.6000622506	       28.5457891380	
        1.5250000000	       34.7867787722	       28.7251518601	
        1.5300000000	       35.0476769847	       28.8757666401	
        1.5350000000	       35.3643691136	       28.9886888784	
        1.5400000000	       35.6968047293	       29.0608094448	
        1.5450000000	       35.9428025210	       29.0824047637	
        1.5500000000	       36.1719421351	       29.0872707813	
        1.5550000000	       36.4430485058	       29.0601824390	
        1.5600000000	       36.6834682990	       29.0168595772	
        1.5650000000	       36.9394269208	       28.9737169901	
        1.5700000000	       37.1633029804	       28.9556064457	
        1.5750000000	       37.3731789594	       28.9498607404	
        1.5800000000	       37.6621185763	       28.9687152659	
        1.5850000000	       37.9274373594	       29.0032179268	
        1.5900000000	       38.1353171779	       29.0393138469	
        1.5950000000	       38.2657151464	       29.0535377299	
        1.6000000000	       38.3147052411	       29.0541424615	
        1.6050000000	       38.3109956502	       29.0337325812	
        1.6100000000	       38.2827795261	       28.9994499055	
        1.6150000000	       38.2186273817	       28.9783182408	
        1.6200000000	       38.1550818854	       28.9791993071	
        1.6250000000	       38.0991427811	       29.0586014396	
        1.6300000000	       38.0414550601	       29.2309698816	
        1.6350000000	       37.9847986310	       29.4227151870	
        1.6400000000	       37.9078065442	       29.6704000423	
        1.6450000000	       37.7583143865	       30.0583629616	
        1.6500000000	       37.5569250235	       30.4593448809	
        1.6550000000	       37.2970419510	       30.8577818189	
        1.6600000000	       36.9902252659	       31.2231455829	
        1.6650000000	       36.7118621658	       31.4983944020	
        1.6700000000	       36.4933098089	       31.6930321709	
        1.6750000000	       36.2296371679	       31.9456188485	
        1.6800000000	       36.0340554178	       32.2173182181	
        1.6850000000	       35.9607146807	       32.5432258566	
        1.6900000000	       35.9588233466	       32.9969816277	
        1.6950000000	       36.0812806269	       33.5404283817	
        1.7000000000	       36.2127171153	       34.0204773476	
        1.7050000000	       36.3871317305	       34.6012497166	
        1.7100000000	       36.6089449396	       35.3109386174	
        1.7150000000	       36.8141242489	       35.9346299781	
        1.7200000000	       37.0032599311	       36.4385451301	
        1.7250000000	       37.1351819964	       36.7194131548	
        1.7300000000	       37.2473701374	       36.9218178752	
        1.7350000000	       37.3507678422	       37.1016085178	
        1.7400000000	       37.3703789419	       37.2518667871	
        1.7450000000	       37.2909952080	       37.4501080855	
        1.7500000000	       37.0728667252	       37.7255839835	
        1.7550000000	       36.7712156509	       38.0155129845	
        1.7600000000	       36.4617770107	       38.2606095053	
        1.7650000000	       36.0001305509	       38.5464749696	
        1.7700000000	       35.5223335078	       38.6357428581	
        1.7750000000	       35.1218202083	       38.5973701083	
        1.7800000000	       34.8252856420	       38.2668467650	
        1.7850000000	       34.6482242859	       37.7541245816	
        1.7900000000	       34.5851906793	       37.3226540671	
        1.7950000000	       34.5618987678	       36.8610342260	
        1.8000000000	       34.5510299913	       36.4178464140	
